<?xml version="1.0" encoding="UTF-8"?>
<svg width="260px" height="78px" viewBox="0 0 260 78" version="1.1" xmlns="http://www.w3.org/2000/svg" xmlns:xlink="http://www.w3.org/1999/xlink">
    <!-- Generator: Sketch 52.5 (67469) - http://www.bohemiancoding.com/sketch -->
    <title>Logo/blue</title>
    <desc>Created with Sketch.</desc>
    <defs>
        <polygon id="path-1" points="0.06 0.502 260 0.502 260 77.94 0.06 77.94"></polygon>
    </defs>
    <g id="Symbols" stroke="none" stroke-width="1" fill="none" fill-rule="evenodd">
        <g id="Wrapper/Footer" transform="translate(-1040.000000, -70.000000)">
            <g id="Logo/blue" transform="translate(1040.000000, 70.000000)">
                <g id="Simmons-logo-blue">
                    <mask id="mask-2" fill="white">
                        <use xlink:href="#path-1"></use>
                    </mask>
                    <g id="Clip-2"></g>
                    <path d="M0.396,38.965 L4.236,38.965 L5.46,35.458 C9.58,38.52 13.643,40.078 17.873,40.078 C26.222,40.078 31.845,35.068 31.845,28.056 C31.845,22.1 27.893,18.26 19.933,16.422 L12.418,14.696 C8.689,13.862 6.909,12.47 6.909,9.854 C6.909,6.904 9.412,5.068 13.978,5.068 C20.044,5.068 24.386,8.852 25.667,15.755 L29.897,15.755 L29.897,1.615 L26.558,1.615 L24.608,4.342 C21.269,1.726 17.818,0.502 13.755,0.502 C5.517,0.502 0.285,5.179 0.285,12.136 C0.285,18.147 4.182,21.264 12.529,23.213 L18.598,24.603 C22.939,25.605 24.943,27.276 24.943,30.171 C24.943,33.288 22.271,35.013 17.261,35.013 C10.414,35.013 5.961,31.005 4.737,23.547 L0.396,23.547 L0.396,38.965 Z M41.419,5.29 C41.419,7.571 43.2,9.464 45.538,9.464 C47.875,9.464 49.711,7.627 49.711,5.29 C49.711,2.952 47.875,1.171 45.538,1.171 C43.2,1.171 41.419,3.007 41.419,5.29 Z M37.41,38.965 L54.331,38.965 L54.331,35.236 L52.663,35.236 C49.822,35.236 49.435,34.456 49.435,31.896 L49.435,12.692 L37.41,12.692 L37.41,16.422 L39.471,16.422 C42.309,16.422 42.643,17.201 42.643,19.761 L42.643,31.896 C42.643,34.456 42.309,35.236 39.471,35.236 L37.41,35.236 L37.41,38.965 Z M87.061,17.201 C85.835,13.639 83.443,11.858 79.825,11.858 C76.261,11.858 73.534,13.528 70.752,17.145 L70.752,12.692 L59.118,12.692 L59.118,16.422 L60.956,16.422 C63.794,16.422 64.127,17.201 64.127,19.761 L64.127,31.896 C64.127,34.456 63.794,35.236 60.956,35.236 L59.118,35.236 L59.118,38.965 L74.592,38.965 L74.592,35.236 L73.924,35.236 C71.085,35.236 70.752,34.456 70.752,31.896 L70.752,23.435 C70.752,19.094 73.702,16.144 76.93,16.144 C80.158,16.144 80.715,17.87 80.715,21.543 L80.715,31.896 C80.715,34.456 80.326,35.236 77.487,35.236 L76.875,35.236 L76.875,38.965 L91.179,38.965 L91.179,35.236 L90.512,35.236 C87.673,35.236 87.338,34.456 87.338,31.896 L87.338,23.435 C87.338,19.094 90.29,16.144 93.518,16.144 C96.746,16.144 97.302,17.87 97.302,21.543 L97.302,31.896 C97.302,34.456 96.912,35.236 94.073,35.236 L93.461,35.236 L93.461,38.965 L108.657,38.965 L108.657,35.236 L107.098,35.236 C104.259,35.236 103.926,34.456 103.926,31.896 L103.926,21.543 C103.926,18.26 103.87,15.866 102.089,13.973 C100.865,12.692 98.75,11.858 96.3,11.858 C92.905,11.858 90.178,13.639 87.061,17.201 Z M139.995,17.201 C138.771,13.639 136.377,11.858 132.759,11.858 C129.197,11.858 126.469,13.528 123.686,17.145 L123.686,12.692 L112.053,12.692 L112.053,16.422 L113.89,16.422 C116.728,16.422 117.062,17.201 117.062,19.761 L117.062,31.896 C117.062,34.456 116.728,35.236 113.89,35.236 L112.053,35.236 L112.053,38.965 L127.526,38.965 L127.526,35.236 L126.859,35.236 C124.019,35.236 123.686,34.456 123.686,31.896 L123.686,23.435 C123.686,19.094 126.635,16.144 129.864,16.144 C133.092,16.144 133.649,17.87 133.649,21.543 L133.649,31.896 C133.649,34.456 133.26,35.236 130.421,35.236 L129.809,35.236 L129.809,38.965 L144.114,38.965 L144.114,35.236 L143.445,35.236 C140.607,35.236 140.273,34.456 140.273,31.896 L140.273,23.435 C140.273,19.094 143.224,16.144 146.451,16.144 C149.68,16.144 150.237,17.87 150.237,21.543 L150.237,31.896 C150.237,34.456 149.848,35.236 147.009,35.236 L146.396,35.236 L146.396,38.965 L161.591,38.965 L161.591,35.236 L160.033,35.236 C157.195,35.236 156.859,34.456 156.859,31.896 L156.859,21.543 C156.859,18.26 156.805,15.866 155.023,13.973 C153.799,12.692 151.684,11.858 149.235,11.858 C145.839,11.858 143.112,13.639 139.995,17.201 Z M164.152,25.829 C164.152,34.29 169.94,39.91 178.959,39.91 C187.975,39.91 193.819,34.29 193.819,25.829 C193.819,17.369 187.975,11.69 178.959,11.69 C169.94,11.69 164.152,17.369 164.152,25.829 Z M171.723,25.829 C171.723,19.038 174.116,15.643 178.959,15.643 C183.801,15.643 186.25,19.038 186.25,25.829 C186.25,32.619 183.801,35.959 178.959,35.959 C174.116,35.959 171.723,32.619 171.723,25.829 Z M196.658,38.965 L212.688,38.965 L212.688,35.236 L211.575,35.236 C208.736,35.236 208.401,34.456 208.401,31.896 L208.401,25.104 C208.401,19.205 211.242,16.144 215.193,16.144 C218.311,16.144 219.313,17.924 219.313,21.543 L219.313,31.896 C219.313,34.456 218.978,35.236 216.139,35.236 L215.025,35.236 L215.025,38.965 L230.834,38.965 L230.834,35.236 L229.22,35.236 C226.382,35.236 226.048,34.456 226.048,31.896 L226.048,21.543 C226.048,14.864 223.82,11.858 217.531,11.858 C214.359,11.858 211.297,13.694 208.401,17.312 L208.401,12.692 L196.658,12.692 L196.658,16.422 L198.494,16.422 C201.333,16.422 201.668,17.201 201.668,19.761 L201.668,31.896 C201.668,34.456 201.333,35.236 198.494,35.236 L196.658,35.236 L196.658,38.965 Z M235.788,39.299 L239.462,39.299 L240.464,36.961 C243.414,39.021 246.03,39.91 249.369,39.91 C256.104,39.91 260,36.571 260,31.395 C260,26.831 256.996,24.27 250.65,22.767 L245.584,21.599 C243.469,21.098 242.467,20.207 242.467,18.759 C242.467,16.868 244.026,15.643 246.697,15.643 C250.65,15.643 253.711,17.981 254.824,22.044 L258.609,22.044 L258.609,12.302 L255.437,12.302 L254.212,14.363 C251.764,12.581 249.202,11.69 246.252,11.69 C240.074,11.69 236.066,15.086 236.066,19.928 C236.066,24.048 238.85,26.664 244.582,28.056 L248.701,29.058 C251.874,29.836 253.378,30.672 253.378,32.509 C253.378,34.512 251.652,35.959 248.701,35.959 C244.081,35.959 240.909,33.343 239.851,28.557 L235.788,28.557 L235.788,39.299 Z" id="Fill-1" fill="#03325E" mask="url(#mask-2)"></path>
                    <path d="M3.365,59.542 L3.365,70.487 C3.365,75.387 6.24,78 11.566,78 C17.152,78 19.896,75.158 19.896,69.343 L19.896,59.542 C19.896,57.647 20.026,57.156 22.217,57.156 L23.197,57.156 L23.197,55.426 L13.787,55.426 L13.787,57.156 L15.388,57.156 C17.576,57.156 17.708,57.647 17.708,59.542 L17.708,69.343 C17.708,73.787 16.172,75.811 12.022,75.811 C8.233,75.811 6.534,74.113 6.534,70.487 L6.534,59.542 C6.534,57.647 6.665,57.156 8.854,57.156 L10.487,57.156 L10.487,55.426 L0,55.426 L0,57.156 L1.045,57.156 C3.235,57.156 3.365,57.647 3.365,59.542 Z M51.26,77.446 L51.26,59.574 C51.26,57.679 51.392,57.156 53.58,57.156 L54.659,57.156 L54.659,55.426 L45.02,55.426 L45.02,57.156 L46.752,57.156 C48.941,57.156 49.071,57.679 49.071,59.574 L49.071,73.035 L36.624,55.426 L29.274,55.426 L29.274,57.156 L30.547,57.156 C32.736,57.156 32.866,57.679 32.866,59.574 L32.866,73.199 C32.866,75.093 32.736,75.617 30.547,75.617 L29.274,75.617 L29.274,77.346 L39.008,77.346 L39.008,75.617 L37.376,75.617 C35.187,75.617 35.055,75.093 35.055,73.199 L35.055,58.397 L48.483,77.446 L51.26,77.446 Z M60.767,77.346 L71.582,77.346 L71.582,75.617 L70.112,75.617 C67.923,75.617 67.791,75.093 67.791,73.199 L67.791,59.542 C67.791,57.647 67.923,57.156 70.112,57.156 L71.582,57.156 L71.582,55.426 L60.767,55.426 L60.767,57.156 L62.237,57.156 C64.426,57.156 64.558,57.647 64.558,59.542 L64.558,73.199 C64.558,75.093 64.426,75.617 62.237,75.617 L60.767,75.617 L60.767,77.346 Z M87.982,77.346 L90.497,77.346 L97.26,59.378 C97.915,57.679 98.339,57.156 100.201,57.156 L101.313,57.156 L101.313,55.426 L91.706,55.426 L91.706,57.156 L93.601,57.156 C94.909,57.156 95.398,57.353 95.398,58.203 C95.398,58.43 95.3,58.856 95.071,59.412 L89.812,73.461 L84.649,59.378 C84.487,58.921 84.42,58.497 84.42,58.136 C84.42,57.385 84.911,57.156 86.087,57.156 L88.114,57.156 L88.114,55.426 L77.495,55.426 L77.495,57.156 L78.507,57.156 C80.239,57.156 80.761,57.647 81.349,59.214 L87.982,77.346 Z M106.375,77.346 L127.154,77.346 L127.154,68.428 L125.457,68.428 C125.39,74.081 124.313,75.617 119.574,75.617 L113.203,75.617 L113.203,66.696 L115.426,66.696 C118.464,66.696 118.921,67.677 118.986,71.499 L120.653,71.499 L120.653,60.751 L118.986,60.751 C118.986,64.507 118.365,64.966 115.458,64.966 L113.203,64.966 L113.203,57.156 L119.15,57.156 C124.051,57.156 125.457,58.43 125.457,63.657 L127.154,63.657 L127.154,55.426 L106.375,55.426 L106.375,57.156 L107.716,57.156 C109.905,57.156 110.035,57.647 110.035,59.542 L110.035,73.199 C110.035,75.093 109.905,75.617 107.716,75.617 L106.375,75.617 L106.375,77.346 Z M141.791,73.199 L141.791,66.828 L146.006,66.828 C149.469,66.828 151.037,68.298 151.168,71.631 L151.299,74.341 C151.396,76.791 152.54,78 154.761,78 C157.375,78 158.42,76.203 158.42,72.348 L158.42,71.99 L156.853,71.99 C156.755,74.668 156.623,75.877 155.644,75.877 C154.205,75.877 154.631,74.276 154.435,71.173 C154.239,68.199 152.866,66.696 149.96,66.107 C153.879,65.619 155.872,63.821 155.872,60.88 C155.872,56.862 152.802,55.426 146.3,55.426 L134.964,55.426 L134.964,57.156 L136.303,57.156 C138.491,57.156 138.623,57.647 138.623,59.542 L138.623,73.199 C138.623,75.093 138.491,75.617 136.303,75.617 L134.964,75.617 L134.964,77.346 L145.744,77.346 L145.744,75.617 L144.109,75.617 C141.921,75.617 141.791,75.093 141.791,73.199 Z M141.791,65.063 L141.791,57.156 L146.3,57.156 C150.481,57.156 152.54,58.171 152.54,60.815 C152.54,63.789 150.448,65.063 146.006,65.063 L141.791,65.063 Z M165.674,77.346 L167.339,77.346 L168.418,74.929 C170.574,77.02 172.893,78 175.704,78 C180.572,78 183.838,75.158 183.838,71.14 C183.838,67.284 181.42,65.619 176.16,64.572 L172.992,63.919 C169.986,63.331 168.548,62.254 168.548,60.391 C168.548,58.071 170.41,56.667 173.678,56.667 C177.761,56.667 180.343,59.085 180.898,63.527 L182.661,63.527 L182.661,55.229 L181.126,55.229 L180.179,57.221 C178.154,55.555 176.063,54.771 173.646,54.771 C168.68,54.771 165.738,57.256 165.738,60.848 C165.738,64.966 168.124,66.141 173.09,67.252 L175.802,67.84 C179.199,68.593 180.866,69.472 180.866,71.826 C180.866,74.244 178.84,75.943 175.604,75.943 C171.292,75.943 168.156,73.099 167.471,68.265 L165.674,68.265 L165.674,77.346 Z M190.732,77.346 L201.546,77.346 L201.546,75.617 L200.075,75.617 C197.887,75.617 197.757,75.093 197.757,73.199 L197.757,59.542 C197.757,57.647 197.887,57.156 200.075,57.156 L201.546,57.156 L201.546,55.426 L190.732,55.426 L190.732,57.156 L192.201,57.156 C194.392,57.156 194.521,57.647 194.521,59.542 L194.521,73.199 C194.521,75.093 194.392,75.617 192.201,75.617 L190.732,75.617 L190.732,77.346 Z M208.994,64.018 L210.661,64.018 C210.759,58.856 212.065,57.156 216.442,57.156 L217.457,57.156 L217.457,73.199 C217.457,75.093 217.325,75.617 215.137,75.617 L213.077,75.617 L213.077,77.346 L225.003,77.346 L225.003,75.617 L222.945,75.617 C220.757,75.617 220.625,75.093 220.625,73.199 L220.625,57.156 L221.639,57.156 C226.017,57.156 227.323,58.856 227.42,64.018 L229.12,64.018 L229.12,55.426 L208.994,55.426 L208.994,64.018 Z M244.998,68.689 L244.998,73.199 C244.998,75.093 244.866,75.617 242.678,75.617 L240.619,75.617 L240.619,77.346 L252.544,77.346 L252.544,75.617 L250.487,75.617 C248.297,75.617 248.167,75.093 248.167,73.199 L248.167,68.689 L253.623,59.868 C254.767,58.006 255.55,57.156 257.053,57.156 L257.838,57.156 L257.838,55.426 L248.917,55.426 L248.917,57.156 L251.141,57.156 C251.858,57.156 252.284,57.418 252.284,57.745 C252.284,58.006 252.152,58.365 251.891,58.791 L247.122,66.468 L242.678,59.118 C242.352,58.594 242.222,58.136 242.222,57.809 C242.222,57.385 242.613,57.156 243.363,57.156 L245.487,57.156 L245.487,55.426 L235.425,55.426 L235.425,57.156 L236.372,57.156 C237.45,57.156 238.365,57.876 239.215,59.28 L244.998,68.689 Z" id="Fill-3" fill="#03325E" mask="url(#mask-2)"></path>
                </g>
            </g>
        </g>
    </g>
</svg>